<mxfile host="app.diagrams.net" modified="2020-06-18T05:07:52.618Z" agent="5.0 (Macintosh; Intel Mac OS X 10_15_5) AppleWebKit/537.36 (KHTML, like Gecko) Chrome/83.0.4103.97 Safari/537.36" etag="bQjPlyf7ln1f5peR8RZz" version="13.1.1" type="github">
  <diagram id="nqpaFUHx_RDBE04F4joq" name="Page-1">
    <mxGraphModel dx="2253" dy="794" grid="1" gridSize="10" guides="1" tooltips="1" connect="1" arrows="1" fold="1" page="1" pageScale="1" pageWidth="827" pageHeight="1169" math="0" shadow="0">
      <root>
        <mxCell id="0" />
        <mxCell id="1" parent="0" />
        <mxCell id="H5bcaFzdt8-KcNW4Rd4b-1" value="" style="whiteSpace=wrap;html=1;fillColor=none;dashed=1;" vertex="1" parent="1">
          <mxGeometry x="40" y="220" width="550" height="270" as="geometry" />
        </mxCell>
        <mxCell id="H5bcaFzdt8-KcNW4Rd4b-12" style="edgeStyle=none;rounded=0;orthogonalLoop=1;jettySize=auto;html=1;exitX=0.5;exitY=1;exitDx=0;exitDy=0;exitPerimeter=0;entryX=0.5;entryY=0;entryDx=0;entryDy=0;entryPerimeter=0;dashed=1;strokeColor=#A8A8A8;strokeWidth=2;" edge="1" parent="1" source="H5bcaFzdt8-KcNW4Rd4b-2" target="H5bcaFzdt8-KcNW4Rd4b-4">
          <mxGeometry relative="1" as="geometry" />
        </mxCell>
        <mxCell id="H5bcaFzdt8-KcNW4Rd4b-13" style="edgeStyle=none;rounded=0;orthogonalLoop=1;jettySize=auto;html=1;exitX=0.5;exitY=1;exitDx=0;exitDy=0;exitPerimeter=0;entryX=0.5;entryY=0;entryDx=0;entryDy=0;entryPerimeter=0;dashed=1;strokeColor=#A8A8A8;strokeWidth=2;" edge="1" parent="1" source="H5bcaFzdt8-KcNW4Rd4b-2" target="H5bcaFzdt8-KcNW4Rd4b-7">
          <mxGeometry relative="1" as="geometry" />
        </mxCell>
        <mxCell id="H5bcaFzdt8-KcNW4Rd4b-2" value="&lt;span&gt;&lt;b&gt;Web&lt;/b&gt;&lt;/span&gt;&lt;br&gt;&lt;div&gt;[Container:&amp;nbsp;&lt;span&gt;React&lt;/span&gt;&lt;span&gt;]&lt;/span&gt;&lt;/div&gt;&lt;br&gt;&lt;div&gt;Provê a interação do cliente com sua conta, consultas e exames&lt;/div&gt;" style="rounded=1;whiteSpace=wrap;html=1;labelBackgroundColor=none;fillColor=#dae8fc;fontColor=#000000;align=center;arcSize=10;strokeColor=#6c8ebf;points=[[0.25,0,0],[0.5,0,0],[0.75,0,0],[1,0.25,0],[1,0.5,0],[1,0.75,0],[0.75,1,0],[0.5,1,0],[0.25,1,0],[0,0.75,0],[0,0.5,0],[0,0.25,0]];" vertex="1" parent="1">
          <mxGeometry x="230" y="70" width="160" height="110.00000000000001" as="geometry" />
        </mxCell>
        <mxCell id="H5bcaFzdt8-KcNW4Rd4b-3" value="&lt;span&gt;&lt;b&gt;BFF&lt;/b&gt;&lt;/span&gt;&lt;br&gt;&lt;div&gt;[Container:&amp;nbsp;&lt;span&gt;Kotlin&lt;/span&gt;&lt;span&gt;]&lt;/span&gt;&lt;/div&gt;&lt;div&gt;&lt;br&gt;&lt;/div&gt;&lt;div&gt;Porta de entrada para os serviços, possui informações filtradas e agregadas por página do front&lt;/div&gt;" style="rounded=1;whiteSpace=wrap;html=1;labelBackgroundColor=none;fillColor=#dae8fc;fontColor=#000000;align=center;arcSize=10;strokeColor=#6c8ebf;points=[[0.25,0,0],[0.5,0,0],[0.75,0,0],[1,0.25,0],[1,0.5,0],[1,0.75,0],[0.75,1,0],[0.5,1,0],[0.25,1,0],[0,0.75,0],[0,0.5,0],[0,0.25,0]];" vertex="1" parent="1">
          <mxGeometry x="230" y="550" width="160" height="110.00000000000001" as="geometry" />
        </mxCell>
        <mxCell id="H5bcaFzdt8-KcNW4Rd4b-10" style="rounded=0;orthogonalLoop=1;jettySize=auto;html=1;strokeWidth=2;strokeColor=#A8A8A8;dashed=1;exitX=0.5;exitY=1;exitDx=0;exitDy=0;exitPerimeter=0;entryX=0.25;entryY=0;entryDx=0;entryDy=0;entryPerimeter=0;" edge="1" parent="1" source="H5bcaFzdt8-KcNW4Rd4b-4" target="H5bcaFzdt8-KcNW4Rd4b-9">
          <mxGeometry relative="1" as="geometry" />
        </mxCell>
        <mxCell id="H5bcaFzdt8-KcNW4Rd4b-4" value="&lt;b&gt;ExamesComponent&lt;/b&gt;&lt;div&gt;[React]&lt;/div&gt;&lt;br&gt;&lt;div&gt;Preenche dados dos exames e faz upload da imagem&lt;/div&gt;" style="rounded=1;whiteSpace=wrap;html=1;labelBackgroundColor=none;fillColor=#dae8fc;fontColor=#000000;align=center;arcSize=10;strokeColor=#6c8ebf;points=[[0.25,0,0],[0.5,0,0],[0.75,0,0],[1,0.25,0],[1,0.5,0],[1,0.75,0],[0.75,1,0],[0.5,1,0],[0.25,1,0],[0,0.75,0],[0,0.5,0],[0,0.25,0]];" vertex="1" parent="1">
          <mxGeometry x="70" y="240" width="160" height="110.00000000000001" as="geometry" />
        </mxCell>
        <mxCell id="H5bcaFzdt8-KcNW4Rd4b-5" value="&lt;b&gt;browser image compression&lt;/b&gt;&lt;div&gt;[javascript]&lt;/div&gt;&lt;br&gt;&lt;div&gt;Bibiloteca para compressão de imagem no cliente&lt;/div&gt;" style="rounded=1;whiteSpace=wrap;html=1;labelBackgroundColor=none;fillColor=#f5f5f5;fontColor=#333333;align=center;arcSize=10;strokeColor=#666666;points=[[0.25,0,0],[0.5,0,0],[0.75,0,0],[1,0.25,0],[1,0.5,0],[1,0.75,0],[0.75,1,0],[0.5,1,0],[0.25,1,0],[0,0.75,0],[0,0.5,0],[0,0.25,0]];" vertex="1" parent="1">
          <mxGeometry x="-170" y="240" width="160" height="110.00000000000001" as="geometry" />
        </mxCell>
        <mxCell id="H5bcaFzdt8-KcNW4Rd4b-6" value="&lt;div style=&quot;text-align: left&quot;&gt;&lt;div style=&quot;text-align: center&quot;&gt;&lt;b&gt;Usa&lt;/b&gt;&lt;br&gt;&lt;/div&gt;&lt;/div&gt;" style="edgeStyle=none;rounded=0;html=1;entryX=1;entryY=0.5;jettySize=auto;orthogonalLoop=1;strokeColor=#A8A8A8;strokeWidth=2;fontColor=#000000;jumpStyle=none;dashed=1;exitX=0;exitY=0.5;exitDx=0;exitDy=0;exitPerimeter=0;entryDx=0;entryDy=0;entryPerimeter=0;" edge="1" parent="1" source="H5bcaFzdt8-KcNW4Rd4b-4" target="H5bcaFzdt8-KcNW4Rd4b-5">
          <mxGeometry width="200" relative="1" as="geometry">
            <mxPoint x="-90" y="210" as="sourcePoint" />
            <mxPoint x="110" y="210" as="targetPoint" />
          </mxGeometry>
        </mxCell>
        <mxCell id="H5bcaFzdt8-KcNW4Rd4b-11" style="rounded=0;orthogonalLoop=1;jettySize=auto;html=1;entryX=0.75;entryY=0;entryDx=0;entryDy=0;entryPerimeter=0;strokeWidth=2;dashed=1;strokeColor=#A8A8A8;exitX=0.5;exitY=1;exitDx=0;exitDy=0;exitPerimeter=0;" edge="1" parent="1" source="H5bcaFzdt8-KcNW4Rd4b-7" target="H5bcaFzdt8-KcNW4Rd4b-9">
          <mxGeometry relative="1" as="geometry" />
        </mxCell>
        <mxCell id="H5bcaFzdt8-KcNW4Rd4b-7" value="&lt;b&gt;ConsultaComponent&lt;/b&gt;&lt;div&gt;[React]&lt;/div&gt;&lt;br&gt;&lt;div&gt;Exibe calendário com datas disponíveis para a consulta&lt;/div&gt;" style="rounded=1;whiteSpace=wrap;html=1;labelBackgroundColor=none;fillColor=#dae8fc;fontColor=#000000;align=center;arcSize=10;strokeColor=#6c8ebf;points=[[0.25,0,0],[0.5,0,0],[0.75,0,0],[1,0.25,0],[1,0.5,0],[1,0.75,0],[0.75,1,0],[0.5,1,0],[0.25,1,0],[0,0.75,0],[0,0.5,0],[0,0.25,0]];" vertex="1" parent="1">
          <mxGeometry x="370" y="240" width="160" height="110.00000000000001" as="geometry" />
        </mxCell>
        <mxCell id="H5bcaFzdt8-KcNW4Rd4b-8" value="&lt;div style=&quot;text-align: left&quot;&gt;&lt;div style=&quot;text-align: center&quot;&gt;&lt;b&gt;Faz chamadas a API&lt;/b&gt;&lt;/div&gt;&lt;div style=&quot;text-align: center&quot;&gt;[json/https]&lt;/div&gt;&lt;/div&gt;" style="edgeStyle=none;rounded=0;html=1;entryX=0.5;entryY=0;jettySize=auto;orthogonalLoop=1;strokeColor=#A8A8A8;strokeWidth=2;fontColor=#000000;jumpStyle=none;dashed=1;exitX=0.5;exitY=1;exitDx=0;exitDy=0;exitPerimeter=0;entryDx=0;entryDy=0;entryPerimeter=0;" edge="1" parent="1" source="H5bcaFzdt8-KcNW4Rd4b-9" target="H5bcaFzdt8-KcNW4Rd4b-3">
          <mxGeometry width="200" relative="1" as="geometry">
            <mxPoint x="-30" y="610" as="sourcePoint" />
            <mxPoint x="170" y="610" as="targetPoint" />
          </mxGeometry>
        </mxCell>
        <mxCell id="H5bcaFzdt8-KcNW4Rd4b-9" value="&lt;b&gt;APIComponent&lt;/b&gt;&lt;div&gt;[React]&lt;/div&gt;&lt;br&gt;&lt;div&gt;Encapsula as regras para chamada a API&lt;/div&gt;" style="rounded=1;whiteSpace=wrap;html=1;labelBackgroundColor=none;fillColor=#dae8fc;fontColor=#000000;align=center;arcSize=10;strokeColor=#6c8ebf;points=[[0.25,0,0],[0.5,0,0],[0.75,0,0],[1,0.25,0],[1,0.5,0],[1,0.75,0],[0.75,1,0],[0.5,1,0],[0.25,1,0],[0,0.75,0],[0,0.5,0],[0,0.25,0]];" vertex="1" parent="1">
          <mxGeometry x="230" y="395" width="160" height="80" as="geometry" />
        </mxCell>
      </root>
    </mxGraphModel>
  </diagram>
</mxfile>
